<?xml version="1.0" standalone="no"?><!DOCTYPE svg PUBLIC "-//W3C//DTD SVG 1.1//EN" "http://www.w3.org/Graphics/SVG/1.1/DTD/svg11.dtd"><svg t="1594817119261" class="icon" viewBox="0 0 1024 1024" version="1.1" xmlns="http://www.w3.org/2000/svg" p-id="956" xmlns:xlink="http://www.w3.org/1999/xlink" width="64" height="64"><defs><style type="text/css"></style></defs><path d="M512 512m-512 0a512 512 0 1 0 1024 0 512 512 0 1 0-1024 0Z" fill="#F14874" p-id="957"></path><path d="M780.0832 466.944l-94.3872-180.5312a24.8576 24.8576 0 0 0-22.016-13.3376H358.1696c-9.2672 0-17.7408 5.12-22.016 13.312L241.7408 466.944a24.8576 24.8576 0 0 0 3.328 27.9296l247.1424 281.2416a24.8576 24.8576 0 0 0 37.376 0l247.1168-281.2416a24.8576 24.8576 0 0 0 3.3536-27.904z m-105.6256 11.8016l-145.0752 160.6912a24.832 24.832 0 0 1-36.9152 0l-145.0752-160.6912a24.8576 24.8576 0 1 1 36.9152-33.3056l126.6176 140.2368 126.6432-140.2368a24.8576 24.8576 0 1 1 36.8896 33.3056z" fill="#FFFFFF" p-id="958"></path></svg>